<svg width="800" height="514" viewBox="0 0 800 514" fill="none" xmlns="http://www.w3.org/2000/svg">
<path d="M800 0.589844H0V513.41H800V0.589844Z" fill="white"/>
<path d="M117.19 265.154C112.267 265.77 103.648 267.614 98.7241 271.924C83.9518 284.847 92.5692 307.615 122.73 307.615C139.964 307.615 157.199 296.538 170.74 279.307C151.044 270.076 135.04 263.306 117.19 265.154Z" fill="#2BA6DF"/>
<path d="M227.518 281C255.216 290.231 261.371 290.846 261.371 290.846V192.387C261.371 175.772 247.83 162.235 230.596 162.235H101.334C84.7149 162.235 70.558 175.773 70.558 192.389V321.619C70.558 338.234 84.0995 351.771 101.334 351.771H230.596C247.214 351.771 261.371 338.233 261.371 321.617V320.388C261.371 320.388 212.13 300.081 186.893 287.773C170.275 308.08 148.731 321.002 125.957 321.002C87.7949 321.002 74.8688 287.773 93.3344 266.235C97.0267 261.312 103.798 257.004 114.262 254.544C130.266 250.85 156.118 257.004 180.123 265.005C184.431 257.004 188.124 248.39 190.587 239.159H116.109V231.774H154.271V217.006H107.491V209.622H154.271V190.546C154.271 190.546 154.271 187.469 157.348 187.469H175.814V210.238H221.979V217.008H175.814V230.546H213.361C209.669 245.314 204.128 258.853 197.357 270.544C209.668 274.851 220.131 278.545 227.518 281.004V281Z" fill="#2BA6DF"/>
<path d="M349.22 206.969L389.843 294.967H368.299L357.22 271.581H323.981L312.903 294.967H298.746L339.986 209.431C339.986 209.431 341.214 206.969 343.678 206.969H349.22ZM327.676 263.582H353.528L340.601 235.889L327.676 263.582ZM417.366 295.666H397.67V211.975C397.67 209.515 398.9 208.282 401.977 208.282H417.366V295.666ZM454.296 295.093H434.601V231.711C434.601 229.249 435.83 228.017 438.907 228.017H454.296V295.093ZM478.382 229.333H491.309V235.487C493.769 233.641 496.233 231.794 499.31 231.179C502.389 229.95 505.466 229.333 509.774 229.333C514.08 229.333 517.775 229.95 520.854 231.794C524.547 233.641 527.008 235.487 529.47 238.564C531.93 241.641 533.777 244.718 535.009 248.411C536.239 252.104 536.854 255.795 536.854 260.101C536.854 265.639 536.239 270.563 534.396 274.87C532.549 279.176 530.7 283.484 527.624 286.561C524.545 289.637 521.468 292.714 517.159 294.561C512.851 296.406 508.543 297.021 503.618 297.021H496.846C495.001 297.021 493.154 296.404 491.309 295.791V317.945H471.61V237.331C470.996 229.333 474.073 229.333 478.382 229.333ZM491.308 277.331C491.308 279.178 491.308 280.408 491.923 281.639C492.538 282.869 493.155 284.098 494.385 285.332C495.613 286.562 496.845 287.177 498.079 287.793C499.309 288.409 501.156 288.409 503.003 288.409C504.848 288.409 506.08 287.793 507.927 286.562C509.157 285.332 511.004 284.101 511.623 281.639C512.238 279.178 513.468 277.331 514.081 274.254C514.699 271.177 515.313 268.716 515.313 265.024C515.313 260.717 515.313 257.025 514.697 253.948C514.079 250.871 513.466 248.409 512.236 245.948C511.004 244.102 509.775 242.254 508.544 241.025C507.312 239.794 505.465 239.177 503.617 239.177C502.388 239.177 501.156 239.177 499.924 239.794C498.692 240.41 497.464 241.025 496.845 241.64C495.615 242.255 495 243.487 493.768 244.102C492.536 245.331 491.921 245.948 491.308 247.178V277.331ZM574.413 229.333C579.337 229.333 583.031 229.95 586.723 230.564C589.8 231.18 592.879 232.41 595.34 234.256C597.802 236.104 599.033 237.949 600.265 239.795C601.494 242.256 602.112 244.718 602.112 247.178V295.792H582.414V290.868C581.186 292.099 579.956 292.715 579.337 293.328L575.643 295.176C574.413 295.792 573.181 296.405 571.336 296.405C569.489 297.022 567.642 297.022 565.797 297.022C562.72 297.022 560.258 296.405 557.793 295.792C555.334 295.176 553.487 293.945 551.639 292.099C549.792 290.868 548.56 289.023 547.945 286.561C547.329 284.714 546.715 282.254 546.715 279.792C546.715 277.328 547.331 274.867 547.945 273.022C548.56 271.173 550.406 269.328 551.639 267.484C552.869 265.636 555.332 264.407 557.177 263.175C559.639 261.946 561.486 260.716 564.565 259.482C567.025 258.253 569.487 257.637 572.566 256.407C575.028 255.791 578.105 254.56 580.567 253.946L583.029 253.33V246.56C583.029 244.714 583.029 242.868 582.413 241.023L580.565 237.329C579.95 236.714 578.72 235.483 578.107 235.483C576.875 234.868 575.645 234.868 574.411 234.868C574.411 234.868 563.948 234.868 554.715 242.868L550.406 236.097C548.563 237.332 559.641 229.333 574.413 229.333ZM581.181 261.948C579.335 262.564 577.488 263.794 575.645 265.025L570.105 268.718C568.257 269.948 567.028 271.178 566.412 273.025C565.18 274.255 565.181 276.102 565.181 277.332C565.181 278.562 565.18 279.794 565.797 281.026C566.412 282.255 566.412 282.872 567.026 284.103C567.644 285.332 568.257 285.332 568.874 285.949C569.489 286.565 570.105 286.565 571.334 286.565C573.182 286.565 574.413 285.949 576.258 285.334L581.799 281.642V261.95L581.181 261.948ZM628.93 317.33H616.003L615.388 305.639C615.388 305.639 631.392 306.255 636.315 300.102C638.162 297.64 639.392 290.871 639.392 290.871L607.387 229.334H628.929L649.242 269.334L667.092 229.334H681.249L648.627 301.949C647.396 304.41 642.472 317.331 628.93 317.33Z" fill="#3F3A39"/>
<path d="M444.513 218.641C449.952 218.641 454.361 214.738 454.361 209.923C454.361 205.108 449.952 201.205 444.513 201.205C439.074 201.205 434.665 205.108 434.665 209.923C434.665 214.738 439.074 218.641 444.513 218.641Z" fill="#2BA6DF"/>
<path d="M701.21 177.933H694.439V176.702H709.21V177.933H702.44V197.009H700.593V177.933H701.21ZM712.201 176.702H714.662L718.97 188.394L720.817 192.702C721.434 191.471 722.047 189.625 722.663 188.394L726.971 176.702H729.433V197.625H726.974V179.163L725.128 184.087L720.819 196.395H719.59L715.282 184.087L713.434 179.163V197.625H711.587V176.702H712.201Z" fill="#3F3A39"/>
</svg>
