<svg width="42" height="42" viewBox="0 0 42 42" fill="none"><path d="M6.12501 15.82L8.75001 15.75V32.375H6.12501C5.19675 32.375 4.30651 32.0063 3.65013 31.3499C2.99375 30.6935 2.62501 29.8033 2.62501 28.875V21.875C2.62351 20.6469 2.94639 19.4402 3.56098 18.377C4.17557 17.3137 5.06007 16.4317 6.12501 15.82Z" fill="#3488F7"></path><path d="M20.125 14.875C20.125 15.8033 19.0314 15.9686 18.375 16.625C17.7186 17.2814 18.0674 18.375 17.1391 18.375H18.375C17.9113 18.3764 17.467 18.5612 17.1391 18.8891C16.8112 19.217 16.6264 19.6613 16.625 20.125V38.5C16.625 38.7321 16.5328 38.9546 16.3687 39.1187C16.2046 39.2828 15.9821 39.375 15.75 39.375H7C6.76794 39.375 6.54538 39.2828 6.38128 39.1187C6.21719 38.9546 6.125 38.7321 6.125 38.5V15.82C7.186 15.1973 8.39476 14.8709 9.625 14.875L20.125 14.875Z" fill="#3488F7"></path><path d="M7.875 7.875C7.875 9.808 9.442 11.375 11.375 11.375C13.308 11.375 14.875 9.808 14.875 7.875V6.125C14.875 4.192 13.308 2.625 11.375 2.625C9.442 2.625 7.875 4.192 7.875 6.125L7.875 7.875Z" fill="#3488F7"></path><path d="M11.8125 32.375V39.375H10.9375V32.375C10.9375 32.259 10.9836 32.1477 11.0656 32.0656C11.1477 31.9836 11.259 31.9375 11.375 31.9375C11.491 31.9375 11.6023 31.9836 11.6844 32.0656C11.7664 32.1477 11.8125 32.259 11.8125 32.375ZM6.125 21.875V32.375C5.82948 32.3777 5.53501 32.3394 5.25 32.2612V21.875C5.25 21.759 5.29609 21.6477 5.37814 21.5656C5.46019 21.4836 5.57147 21.4375 5.6875 21.4375C5.80353 21.4375 5.91481 21.4836 5.99686 21.5656C6.07891 21.6477 6.125 21.759 6.125 21.875Z" fill="#B3D9FF"></path><path d="M31.25 23.625C30.9516 23.625 30.6655 23.5052 30.4545 23.2918C30.2435 23.0785 30.125 22.7892 30.125 22.4875V20.2125C30.125 17.0775 27.6005 14.525 24.5 14.525C21.3995 14.525 18.875 17.0775 18.875 20.2125V22.4875C18.875 22.7892 18.7565 23.0785 18.5455 23.2918C18.3345 23.5052 18.0484 23.625 17.75 23.625C17.4516 23.625 17.1655 23.5052 16.9545 23.2918C16.7435 23.0785 16.625 22.7892 16.625 22.4875V20.2125C16.625 15.8218 20.1575 12.25 24.5 12.25C28.8425 12.25 32.375 15.8218 32.375 20.2125V22.4875C32.375 22.7892 32.2565 23.0785 32.0455 23.2918C31.8345 23.5052 31.5484 23.625 31.25 23.625Z" fill="#E0E9F5"></path><path d="M32.6667 21.875H16.3333C15.0477 21.875 14 22.9975 14 24.375V36.875C14 38.2525 15.0477 39.375 16.3333 39.375H32.6667C33.9523 39.375 35 38.2525 35 36.875V24.375C35 22.9975 33.9523 21.875 32.6667 21.875Z" fill="#B3D9FF"></path><path d="M26.25 32.375H22.75L23.3083 30.142C23.1331 29.9805 22.9931 29.7847 22.8971 29.5667C22.801 29.3487 22.7509 29.1132 22.75 28.875C22.75 27.9108 23.5358 27.125 24.5 27.125C25.4643 27.125 26.25 27.9108 26.25 28.875C26.2491 29.1132 26.199 29.3487 26.1029 29.5667C26.0069 29.7847 25.8669 29.9805 25.6917 30.142L26.25 32.375Z" fill="#3488F7"></path></svg>