<svg width="800" height="513" viewBox="0 0 800 513" fill="none" xmlns="http://www.w3.org/2000/svg">
<path d="M530.432 264.422C531.266 264.361 532.222 264.34 533.199 264.34C543.185 264.34 552.419 267.51 559.944 272.894L559.802 272.792C559.802 282.626 555.49 291.444 548.656 297.478L548.615 297.519C542.127 304 533.178 308.023 523.273 308.023C523.111 308.023 522.927 308.023 522.744 308.023C516.297 308.023 510.358 305.808 505.68 302.09L505.741 302.131C501.206 298.819 498.297 293.536 498.297 287.563C498.297 287.522 498.297 287.482 498.297 287.441C498.399 280.554 502.019 274.519 507.45 271.065L507.531 271.025C513.551 266.88 520.995 264.401 529.009 264.401C529.497 264.401 529.985 264.401 530.473 264.422H530.432ZM584.981 204.303L634.445 316.576L606.54 377H629.787L705 204.282H680.471L645.713 290.367H645.204L609.469 204.303H584.981ZM527.463 200.381C526.507 200.32 525.388 200.28 524.27 200.28C505.599 200.28 489.104 209.524 479.118 223.685L478.996 223.868L498.846 236.343C505.07 226.713 515.748 220.434 527.91 220.434C528.195 220.434 528.48 220.434 528.744 220.455H528.704C528.826 220.455 528.948 220.455 529.09 220.455C537.327 220.455 544.832 223.563 550.486 228.683L550.466 228.663C556.161 233.397 559.761 240.488 559.761 248.411C559.761 248.472 559.761 248.554 559.761 248.615V248.594V253.714C550.914 249.062 540.439 246.319 529.314 246.319C528.399 246.319 527.504 246.339 526.588 246.38H526.71C525.816 246.339 524.738 246.298 523.68 246.298C510.704 246.298 498.704 250.464 488.941 257.514L489.124 257.392C480.521 263.954 475.03 274.194 475.03 285.714C475.03 286.161 475.03 286.588 475.05 287.035V286.974C475.05 287.177 475.05 287.421 475.05 287.665C475.05 299.144 480.216 309.404 488.352 316.292L488.413 316.332C496.853 323.647 507.938 328.116 520.08 328.116C520.609 328.116 521.138 328.116 521.666 328.096H521.585C521.748 328.096 521.931 328.096 522.114 328.096C537.571 328.096 551.137 319.949 558.724 307.718L558.825 307.535H559.781V324.155H581.34V250.301C581.381 249.57 581.401 248.716 581.401 247.843C581.401 234.453 575.849 222.365 566.92 213.75L566.9 213.73C557.198 205.4 544.466 200.32 530.554 200.32C529.477 200.32 528.399 200.361 527.321 200.422H527.463V200.381ZM422.637 170.555C430.895 170.698 438.298 174.233 443.545 179.8L443.566 179.82C448.996 185.326 452.352 192.884 452.352 201.214C452.352 218.037 438.684 231.69 421.844 231.69C421.64 231.69 421.437 231.69 421.234 231.69H421.274H383.485V170.555H421.274C421.735 170.542 422.19 170.542 422.637 170.555ZM360.97 148.978V324.175H383.485V253.206H420.725C421.132 253.227 421.62 253.227 422.108 253.227C436.589 253.227 449.728 247.538 459.43 238.253L459.409 238.273C469.355 228.988 475.558 215.822 475.558 201.214C475.558 186.606 469.355 173.42 459.45 164.176L459.43 164.155C449.728 154.748 436.467 148.958 421.864 148.958C421.478 148.958 421.091 148.958 420.685 148.978H420.746H360.97ZM195.738 135C140.111 135 95 180.064 95 235.632C95 291.2 140.111 336.264 195.738 336.264C196.531 336.284 197.467 336.304 198.423 336.304C223.073 336.304 245.547 327.08 262.612 311.883L262.51 311.964C281.039 294.044 292.55 268.952 292.55 241.199C292.55 240.061 292.53 238.903 292.489 237.765V237.928C292.489 230.695 291.838 223.604 290.598 216.737L290.7 217.468H195.738V256.213H250.124C247.764 269.054 240.422 279.842 230.212 286.71L230.049 286.811C220.714 292.927 209.263 296.564 196.958 296.564C163.298 296.564 136.023 269.318 136.023 235.693C136.023 202.515 162.606 175.533 195.657 174.842H195.718C195.982 174.842 196.307 174.842 196.612 174.842C211.256 174.842 224.558 180.592 234.381 189.958L234.361 189.938L263.141 161.25C245.873 144.996 222.524 135.02 196.857 135.02C196.47 135.02 196.063 135.02 195.677 135.02L195.738 135Z" fill="black"/>
<g style="mix-blend-mode:color-dodge">
<path d="M0.5 0.5H799.5V512.321H0.5V0.5Z" fill="white"/>
<path d="M0.5 0.5H799.5V512.321H0.5V0.5Z" stroke="black"/>
</g>
</svg>
