<svg width="800" height="514" viewBox="0 0 800 514" fill="none" xmlns="http://www.w3.org/2000/svg">
<path d="M800 0.589722H0V513.41H800V0.589722Z" fill="white"/>
<path d="M460.523 257C460.523 358.685 378.092 441.103 276.41 441.103C174.728 441.103 92.3076 358.681 92.3076 257C92.3076 155.325 174.73 72.8975 276.41 72.8975C378.089 72.8975 460.523 155.328 460.523 257Z" fill="#D9222A"/>
<path d="M523.579 72.8933C476.01 72.8933 432.664 90.9405 399.99 120.551C393.333 126.591 387.12 133.102 381.4 140.034H418.596C423.689 146.226 428.376 152.739 432.632 159.534H367.365C363.44 165.812 359.898 172.323 356.759 179.03H443.233C446.2 185.373 448.803 191.881 451.028 198.521H348.964C346.819 204.916 345.034 211.425 343.613 218.017H456.372C459.13 230.828 460.52 243.895 460.517 257C460.517 277.445 457.179 297.116 451.026 315.482H348.962C351.181 322.127 353.783 328.636 356.752 334.979H443.231C440.088 341.687 436.544 348.199 432.618 354.48H367.362C371.623 361.279 376.316 367.792 381.398 373.963H418.586C412.873 380.909 406.657 387.426 399.991 393.463C432.668 423.07 476.009 441.108 523.58 441.108C625.26 441.107 707.693 358.685 707.693 257.005C707.693 155.333 625.263 72.9025 523.58 72.9025" fill="#EE9F2D"/>
<path d="M683.159 359.626C683.159 356.343 685.817 353.676 689.104 353.676C692.39 353.676 695.048 356.343 695.048 359.626C695.048 362.907 692.39 365.573 689.104 365.573C685.819 365.572 683.158 362.909 683.159 359.626ZM689.104 364.147C691.601 364.146 693.624 362.121 693.625 359.626C693.625 357.13 691.602 355.109 689.108 355.109H689.104C686.612 355.105 684.591 357.122 684.587 359.613V359.627C684.584 362.121 686.604 364.146 689.098 364.148C689.099 364.147 689.102 364.147 689.104 364.147ZM688.301 362.239H687.082V357.014H689.286C689.748 357.014 690.217 357.014 690.625 357.275C691.048 357.56 691.287 358.065 691.287 358.586C691.287 359.17 690.942 359.718 690.382 359.931L691.343 362.239H689.994L689.194 360.171H688.302L688.301 362.239ZM688.301 359.275H688.975C689.228 359.275 689.492 359.295 689.719 359.172C689.92 359.044 690.023 358.804 690.023 358.573C690.023 358.373 689.899 358.143 689.727 358.044C689.515 357.91 689.177 357.941 688.95 357.941H688.301V359.275ZM233.429 277.159C231.331 276.916 230.408 276.85 228.967 276.85C217.639 276.85 211.904 280.736 211.904 288.407C211.904 293.136 214.704 296.147 219.07 296.147C227.211 296.147 233.079 288.393 233.429 277.159ZM247.963 311.001H231.403L231.784 303.128C226.732 309.351 219.993 312.308 210.835 312.308C200.002 312.308 192.574 303.846 192.574 291.56C192.574 273.074 205.493 262.288 227.669 262.288C229.933 262.288 232.839 262.493 235.813 262.872C236.434 260.368 236.596 259.296 236.596 257.949C236.596 252.915 233.113 251.038 223.775 251.038C213.998 250.927 205.933 253.367 202.622 254.457C202.831 253.196 205.391 237.372 205.391 237.372C215.352 234.453 221.921 233.355 229.314 233.355C246.476 233.355 255.566 241.06 255.55 255.624C255.583 259.526 254.937 264.342 253.929 270.671C252.194 281.677 248.473 305.253 247.963 311.001ZM184.211 311.001H164.224L175.673 239.209L150.109 311.001H136.488L134.806 239.62L122.771 311.001H104.062L119.69 217.612H148.429L150.172 269.885L167.703 217.612H199.669L184.211 311.001ZM548.293 277.159C546.204 276.916 545.276 276.85 543.84 276.85C532.516 276.85 526.779 280.736 526.779 288.407C526.779 293.136 529.575 296.147 533.942 296.147C542.084 296.147 547.956 288.393 548.293 277.159ZM562.84 311.001H546.281L546.655 303.128C541.604 309.351 534.86 312.308 525.712 312.308C514.875 312.308 507.455 303.846 507.455 291.56C507.455 273.074 520.365 262.288 542.545 262.288C544.809 262.288 547.711 262.493 550.682 262.872C551.302 260.368 551.465 259.296 551.465 257.949C551.465 252.915 547.986 251.038 538.648 251.038C528.871 250.927 520.814 253.367 517.489 254.457C517.7 253.196 520.268 237.372 520.268 237.372C530.23 234.453 536.794 233.355 544.177 233.355C561.348 233.355 570.438 241.06 570.422 255.624C570.454 259.526 569.809 264.342 568.801 270.671C567.076 281.677 563.345 305.253 562.84 311.001ZM336.799 309.847C331.328 311.57 327.064 312.308 322.44 312.308C312.222 312.308 306.645 306.436 306.645 295.624C306.499 292.27 308.115 283.44 309.384 275.381C310.537 268.286 318.05 223.555 318.05 223.555H337.918L335.598 235.051H347.598L344.887 253.304H332.844C330.536 267.748 327.25 285.74 327.212 288.124C327.212 292.039 329.302 293.748 334.053 293.748C336.331 293.748 338.095 293.516 339.443 293.03L336.799 309.847ZM397.713 309.232C390.888 311.317 384.303 312.326 377.324 312.309C355.085 312.287 343.491 300.672 343.491 278.43C343.491 252.468 358.24 233.356 378.261 233.356C394.64 233.356 405.102 244.056 405.102 260.839C405.102 266.407 404.384 271.843 402.653 279.518H363.089C361.752 290.535 368.802 295.125 380.358 295.125C387.471 295.125 393.884 293.658 401.016 290.343L397.713 309.232ZM386.547 264.206C386.656 262.624 388.653 250.65 377.303 250.65C370.973 250.65 366.448 255.475 364.605 264.206H386.547ZM259.962 259.061C259.962 268.668 264.619 275.291 275.184 280.267C283.278 284.071 284.53 285.199 284.53 288.646C284.53 293.382 280.961 295.518 273.051 295.518C267.09 295.518 261.544 294.588 255.146 292.523C255.146 292.523 252.517 309.262 252.397 310.063C256.941 311.053 260.992 311.971 273.197 312.309C294.286 312.309 304.026 304.279 304.026 286.924C304.026 276.488 299.949 270.364 289.936 265.762C281.556 261.916 280.594 261.056 280.594 257.51C280.594 253.403 283.915 251.309 290.376 251.309C294.299 251.309 299.658 251.727 304.735 252.45L307.582 234.835C302.406 234.014 294.56 233.356 289.992 233.356C267.633 233.356 259.893 245.035 259.962 259.061ZM494.926 235.352C500.478 235.352 505.653 236.808 512.786 240.398L516.054 220.129C513.127 218.981 502.82 212.232 494.089 212.232C480.713 212.232 469.406 218.868 461.453 229.822C449.853 225.98 445.085 233.745 439.239 241.48L434.047 242.689C434.44 240.143 434.796 237.612 434.676 235.052H416.321C413.813 258.557 409.368 282.365 405.889 305.898L404.983 311.002H424.978C428.316 289.317 430.146 275.432 431.256 266.036L438.787 261.847C439.911 257.663 443.432 256.249 450.495 256.42C449.546 261.556 449.071 266.768 449.077 271.993C449.077 296.839 462.483 312.309 484 312.309C489.543 312.309 494.3 311.578 501.663 309.584L505.182 288.291C498.556 291.553 493.119 293.087 488.196 293.087C476.577 293.087 469.547 284.511 469.547 270.334C469.546 249.77 480.003 235.352 494.926 235.352Z" fill="black"/>
<path d="M189.959 305.451H169.968L181.425 233.669L155.861 305.451H142.238L140.554 234.079L128.52 305.451H109.809L125.438 212.075H154.177L154.985 269.882L174.373 212.075H205.417L189.959 305.451Z" fill="white"/>
<path d="M664.123 217.615L659.693 244.598C654.227 237.406 648.356 232.201 640.604 232.201C630.518 232.201 621.338 239.846 615.33 251.098C606.963 249.363 598.308 246.418 598.308 246.418L598.304 246.487C598.978 240.197 599.247 236.359 599.188 235.055H580.829C578.329 258.56 573.885 282.368 570.411 305.901L569.495 311.005H589.487C592.188 293.47 594.256 278.91 595.777 267.363C602.607 261.192 606.026 255.807 612.927 256.166C609.872 263.557 608.081 272.068 608.081 280.799C608.081 299.787 617.688 312.312 632.218 312.312C639.543 312.312 645.162 309.787 650.645 303.932L649.71 310.993H668.615L683.838 217.615H664.123ZM639.128 293.453C632.324 293.453 628.889 288.418 628.889 278.482C628.889 263.556 635.321 252.969 644.389 252.969C651.255 252.969 654.973 258.204 654.973 267.849C654.974 282.907 648.441 293.453 639.128 293.453Z" fill="black"/>
<path d="M239.169 271.626C237.075 271.384 236.148 271.318 234.712 271.318C223.383 271.318 217.651 275.203 217.651 282.874C217.651 287.596 220.451 290.614 224.81 290.614C232.959 290.613 238.827 282.862 239.169 271.626ZM253.712 305.455H237.152L237.528 297.596C232.481 303.805 225.733 306.775 216.584 306.775C205.746 306.775 198.323 298.314 198.323 286.028C198.323 267.533 211.237 256.754 233.416 256.754C235.682 256.754 238.588 256.959 241.558 257.339C242.177 254.835 242.34 253.763 242.34 252.408C242.34 247.374 238.862 245.506 229.523 245.506C219.742 245.395 211.682 247.836 208.365 248.913C208.574 247.655 211.134 231.848 211.134 231.848C221.092 228.917 227.669 227.817 235.053 227.817C252.221 227.817 261.314 235.528 261.297 250.079C261.327 253.997 260.677 258.809 259.673 265.13C257.943 276.13 254.216 299.72 253.712 305.455ZM521.794 214.592L518.52 234.866C511.392 231.28 506.212 229.818 500.667 229.818C485.743 229.818 475.282 244.237 475.282 264.8C475.282 278.975 482.315 287.55 493.931 287.55C498.854 287.55 504.286 286.019 510.91 282.753L507.402 304.035C500.034 306.044 495.283 306.775 489.734 306.775C468.221 306.775 454.811 291.305 454.811 266.458C454.811 233.074 473.333 209.74 499.825 209.74C508.55 209.742 518.863 213.442 521.794 214.592ZM554.042 271.626C551.949 271.384 551.026 271.318 549.585 271.318C538.26 271.318 532.524 275.203 532.524 282.874C532.524 287.596 535.323 290.614 539.687 290.614C547.828 290.613 553.7 282.862 554.042 271.626ZM568.585 305.455H552.021L552.4 297.596C547.35 303.805 540.605 306.775 531.456 306.775C520.623 306.775 513.196 298.314 513.196 286.028C513.196 267.533 526.114 256.754 548.285 256.754C550.555 256.754 553.456 256.959 556.43 257.339C557.046 254.835 557.212 253.763 557.212 252.408C557.212 247.374 553.733 245.506 544.396 245.506C534.619 245.395 526.554 247.836 523.238 248.913C523.447 247.655 526.011 231.848 526.011 231.848C535.969 228.917 542.541 227.817 549.925 227.817C567.096 227.817 576.186 235.528 576.164 250.079C576.199 253.997 575.554 258.809 574.545 265.13C572.82 276.13 569.084 299.72 568.585 305.455ZM342.544 304.305C337.069 306.028 332.804 306.775 328.185 306.775C317.966 306.775 312.39 300.903 312.39 290.092C312.248 286.727 313.864 277.907 315.133 269.848C316.282 262.745 323.796 218.019 323.796 218.019H343.66L341.343 229.519H351.54L348.826 247.763H338.595C336.287 262.215 332.992 280.193 332.958 282.583C332.958 286.511 335.052 288.206 339.8 288.206C342.077 288.206 343.839 287.984 345.189 287.496L342.544 304.305ZM403.459 303.698C396.638 305.784 390.043 306.789 383.069 306.775C360.829 306.754 349.236 295.138 349.236 272.895C349.236 246.925 363.985 227.818 384.005 227.818C400.385 227.818 410.846 238.515 410.846 255.306C410.846 260.878 410.128 266.314 408.403 273.985H368.839C367.5 285.001 374.551 289.596 386.108 289.596C393.215 289.596 399.634 288.125 406.761 284.8L403.459 303.698ZM392.287 258.66C392.407 257.083 394.399 245.105 383.043 245.105C376.719 245.105 372.193 249.943 370.351 258.66H392.287ZM265.703 253.528C265.703 263.133 270.361 269.75 280.925 274.733C289.019 278.536 290.271 279.669 290.271 283.113C290.271 287.848 286.698 289.985 278.797 289.985C272.831 289.985 267.284 289.053 260.882 286.99C260.882 286.99 258.263 303.728 258.144 304.528C262.677 305.52 266.732 306.426 278.937 306.775C300.032 306.775 309.767 298.746 309.767 281.395C309.767 270.954 305.694 264.831 295.677 260.229C287.301 256.374 286.331 255.528 286.331 251.976C286.331 247.874 289.66 245.763 296.117 245.763C300.036 245.763 305.395 246.194 310.48 246.917L313.322 229.296C308.152 228.476 300.306 227.818 295.736 227.818C273.373 227.818 265.639 239.489 265.703 253.528ZM674.369 305.455H655.46L656.4 298.386C650.916 304.249 645.298 306.775 637.972 306.775C623.441 306.775 613.839 294.249 613.839 275.263C613.839 250.001 628.732 228.706 646.361 228.706C654.113 228.706 659.982 231.873 665.442 239.06L669.878 212.078H689.592L674.369 305.455ZM644.887 287.908C654.195 287.908 660.733 277.361 660.733 262.315C660.733 252.669 657.01 247.434 650.144 247.434C641.079 247.434 634.64 258.015 634.64 272.947C634.639 282.881 638.083 287.908 644.887 287.908ZM586.587 229.519C584.085 253.024 579.64 276.832 576.164 300.353L575.25 305.455H595.241C602.391 259.019 604.121 249.951 615.331 251.087C617.118 241.584 620.441 233.258 622.92 229.057C614.548 227.314 609.873 232.045 603.753 241.032C604.236 237.148 605.121 233.374 604.946 229.519H586.587ZM422.053 229.519C419.545 253.024 415.1 276.832 411.626 300.353L410.716 305.455H430.716C437.856 259.019 439.584 249.951 450.787 251.087C452.582 241.584 455.907 233.258 458.376 229.057C450.013 227.314 445.334 232.045 439.22 241.032C439.702 237.148 440.579 233.374 440.411 229.519H422.053ZM683.151 299.511C683.151 296.214 685.813 293.562 689.095 293.562C692.374 293.559 695.036 296.215 695.039 299.495V299.511C695.038 302.793 692.377 305.453 689.095 305.455C685.813 305.453 683.153 302.793 683.151 299.511ZM689.095 304.028C691.59 304.029 693.611 302.007 693.611 299.514V299.512C693.614 297.016 691.593 294.993 689.1 294.991H689.095C686.598 294.992 684.574 297.015 684.573 299.512C684.576 302.006 686.6 304.028 689.095 304.028ZM688.291 302.11H687.073V296.895H689.282C689.74 296.895 690.213 296.904 690.611 297.156C691.038 297.446 691.282 297.943 691.282 298.463C691.282 299.052 690.935 299.604 690.371 299.813L691.336 302.107H689.984L689.184 300.047H688.291V302.107V302.11ZM688.291 299.156H688.962C689.213 299.156 689.488 299.174 689.71 299.053C689.91 298.925 690.012 298.683 690.012 298.451C690.003 298.236 689.894 298.037 689.718 297.914C689.509 297.794 689.162 297.827 688.935 297.827H688.29L688.291 299.156Z" fill="white"/>
</svg>
