<svg width="186" height="186" viewBox="0 0 186 186" fill="none" xmlns="http://www.w3.org/2000/svg">
<path d="M186 0H0V186H186V0Z" fill="#0086FF"/>
<path d="M42 62.5621V80.3987L44.513 83H62V62.5799H52.0604C52.2101 55.9153 55.5233 52.4527 62 52.1923V42C48.6667 43.5626 42 50.4166 42 62.5621Z" fill="white"/>
<path d="M69 62.5621V80.3987L71.5862 83H89V62.5799H79.0776C79.2557 55.9153 82.5632 52.4527 89 52.1923V42C75.6667 43.5626 69 50.4166 69 62.5621Z" fill="white"/>
<path d="M123 117.856V121.144L100.729 143L94 138.012L106.054 119.504L94 100.988L100.729 96L123 117.856Z" fill="white"/>
<path d="M148 117.856V121.144L125.729 143L119 138.012L131.054 119.504L119 100.988L125.729 96L148 117.856Z" fill="white"/>
</svg>
