<svg width="800" height="513" viewBox="0 0 800 513" fill="none" xmlns="http://www.w3.org/2000/svg">
<path d="M800 0H0V512.821H800V0Z" fill="white"/>
<path d="M300.718 357.672L334.934 156.892H389.663L355.422 357.672H300.718ZM553.139 161.221C542.297 157.153 525.306 152.788 504.09 152.788C450.013 152.788 411.921 180.018 411.598 219.047C411.291 247.898 438.792 263.993 459.549 273.597C480.852 283.438 488.012 289.714 487.912 298.503C487.777 311.96 470.901 318.109 455.171 318.109C433.267 318.109 421.63 315.066 403.656 307.569L396.604 304.38L388.923 349.326C401.706 354.93 425.344 359.786 449.885 360.037C507.413 360.037 544.757 333.118 545.184 291.44C545.388 268.6 530.808 251.218 499.234 236.888C480.106 227.601 468.391 221.402 468.515 211.998C468.515 203.652 478.431 194.727 499.855 194.727C517.752 194.45 530.717 198.353 540.817 202.42L545.721 204.737L553.139 161.221ZM693.969 156.889H651.68C638.579 156.889 628.775 160.466 623.023 173.54L541.747 357.54H599.214C599.214 357.54 608.609 332.798 610.734 327.367C617.016 327.367 672.842 327.453 680.825 327.453C682.462 334.482 687.481 357.54 687.481 357.54H738.265L693.969 156.883V156.889ZM626.874 286.541C631.399 274.972 648.679 230.414 648.679 230.414C648.355 230.95 653.17 218.79 655.934 211.251L659.632 228.563C659.632 228.563 670.113 276.49 672.303 286.541H626.874ZM254.258 156.889L200.679 293.812L194.969 265.987C184.995 233.912 153.918 199.161 119.176 181.763L168.167 357.353L226.071 357.287L312.229 156.887H254.258" fill="black"/>
<path d="M150.687 156.882H62.44L61.7415 161.06C130.396 177.679 175.824 217.842 194.685 266.095L175.495 173.829C172.183 161.116 162.575 157.322 150.689 156.878" fill="#F2AE14"/>
</svg>
